<svg width="36" height="35" viewBox="0 0 36 35" fill="none" xmlns="http://www.w3.org/2000/svg">
<path d="M32.5876 4.07611C31.8607 3.39591 30.8749 3.01379 29.8471 3.01379C28.8192 3.01379 27.8334 3.39591 27.1066 4.07611L25.3982 5.67506L30.8792 10.805L32.5876 9.20603C33.3143 8.52572 33.7226 7.60309 33.7226 6.64107C33.7226 5.67905 33.3143 4.75642 32.5876 4.07611ZM29.3125 12.2713L23.8315 7.14135L11.4284 18.75C10.5172 19.6025 9.84728 20.6541 9.47935 21.8097L8.2981 25.5203C8.24107 25.6994 8.23682 25.8895 8.28579 26.0707C8.33477 26.2518 8.43515 26.4172 8.57631 26.5493C8.71747 26.6814 8.89417 26.7754 9.08771 26.8212C9.28124 26.8671 9.48442 26.8631 9.67574 26.8097L13.6403 25.7041C14.875 25.3598 15.9986 24.7328 16.9094 23.8799L29.3125 12.2713Z" fill="#A08963"/>
<path d="M8.25195 8.1958C7.07713 8.1958 5.95042 8.6326 5.11969 9.41012C4.28896 10.1876 3.82227 11.2422 3.82227 12.3417V26.8526C3.82227 27.9521 4.28896 29.0067 5.11969 29.7842C5.95042 30.5617 7.07713 30.9985 8.25195 30.9985H23.7559C24.9307 30.9985 26.0574 30.5617 26.8881 29.7842C27.7188 29.0067 28.1855 27.9521 28.1855 26.8526V19.5972C28.1855 19.3223 28.0689 19.0586 27.8612 18.8642C27.6535 18.6699 27.3718 18.5607 27.0781 18.5607C26.7844 18.5607 26.5027 18.6699 26.2951 18.8642C26.0874 19.0586 25.9707 19.3223 25.9707 19.5972V26.8526C25.9707 27.4023 25.7374 27.9296 25.322 28.3184C24.9066 28.7071 24.3433 28.9255 23.7559 28.9255H8.25195C7.66454 28.9255 7.10119 28.7071 6.68582 28.3184C6.27046 27.9296 6.03711 27.4023 6.03711 26.8526V12.3417C6.03711 11.792 6.27046 11.2647 6.68582 10.8759C7.10119 10.4872 7.66454 10.2688 8.25195 10.2688H16.0039C16.2976 10.2688 16.5793 10.1596 16.787 9.96519C16.9947 9.77082 17.1113 9.50718 17.1113 9.23229C17.1113 8.95739 16.9947 8.69376 16.787 8.49938C16.5793 8.305 16.2976 8.1958 16.0039 8.1958H8.25195Z" fill="#A08963"/>
</svg>
