<svg width="47" height="43" viewBox="0 0 47 43" fill="none" xmlns="http://www.w3.org/2000/svg">
<path d="M19.891 2.36119C20.1601 2.11506 20.5249 1.97681 20.9052 1.97681C21.2855 1.97681 21.6502 2.11506 21.9193 2.36119L27.6597 7.6186C27.9132 7.86775 28.0512 8.1973 28.0446 8.53781C28.0381 8.87831 27.8875 9.2032 27.6245 9.44401C27.3616 9.68482 27.0069 9.82276 26.6351 9.82877C26.2633 9.83477 25.9035 9.70838 25.6314 9.47621L22.3403 6.46197V12.4905H19.4701V6.46197L16.1789 9.47621C15.9068 9.70838 15.547 9.83477 15.1752 9.82877C14.8035 9.82276 14.4487 9.68482 14.1858 9.44401C13.9229 9.2032 13.7722 8.87831 13.7657 8.53781C13.7591 8.1973 13.8971 7.86775 14.1506 7.6186L19.891 2.36119ZM19.4701 12.4905V23.0053C19.4701 23.3539 19.6213 23.6882 19.8904 23.9347C20.1595 24.1811 20.5245 24.3196 20.9052 24.3196C21.2858 24.3196 21.6508 24.1811 21.9199 23.9347C22.1891 23.6882 22.3403 23.3539 22.3403 23.0053V12.4905H28.0807C29.6031 12.4905 31.0632 13.0444 32.1397 14.0303C33.2163 15.0163 33.8211 16.3535 33.8211 17.7479V30.8914C33.8211 32.2857 33.2163 33.623 32.1397 34.6089C31.0632 35.5949 29.6031 36.1488 28.0807 36.1488H13.7297C12.2072 36.1488 10.7471 35.5949 9.67058 34.6089C8.59405 33.623 7.98926 32.2857 7.98926 30.8914V17.7479C7.98926 16.3535 8.59405 15.0163 9.67058 14.0303C10.7471 13.0444 12.2072 12.4905 13.7297 12.4905H19.4701Z" fill="white"/>
<path d="M14.4971 38.7776C15.0009 39.5771 15.7258 40.2411 16.5988 40.7025C17.4718 41.164 18.4622 41.4067 19.4702 41.4063H33.8212C35.3436 41.4063 36.8037 40.8524 37.8802 39.8664C38.9568 38.8805 39.5616 37.5432 39.5616 36.1489V23.0053C39.5616 21.0601 38.4078 19.3602 36.6914 18.4507V30.8915C36.6914 32.983 35.7842 34.9888 34.1694 36.4678C32.5546 37.9467 30.3644 38.7776 28.0808 38.7776H14.4971Z" fill="white"/>
</svg>
