<svg width="47" height="42" viewBox="0 0 47 42" fill="none" xmlns="http://www.w3.org/2000/svg">
<path fill-rule="evenodd" clip-rule="evenodd" d="M31.6873 8.24543V8.63188C34.1729 8.8341 36.6483 9.12488 39.1077 9.50351C39.2934 9.53212 39.471 9.593 39.6302 9.68266C39.7895 9.77232 39.9273 9.88901 40.0359 10.0261C40.1444 10.1631 40.2216 10.3179 40.2629 10.4815C40.3043 10.645 40.309 10.8143 40.2768 10.9795C40.2447 11.1447 40.1763 11.3027 40.0755 11.4443C39.9747 11.586 39.8435 11.7087 39.6895 11.8053C39.5354 11.9018 39.3615 11.9705 39.1776 12.0073C38.9938 12.0441 38.8036 12.0483 38.6179 12.0196L38.2179 11.9601L36.2949 34.2104C36.184 35.4933 35.533 36.6917 34.4719 37.566C33.4108 38.4402 32.0179 38.926 30.5717 38.926H15.5835C14.1373 38.926 12.7445 38.4402 11.6834 37.566C10.6223 36.6917 9.97124 35.4933 9.86037 34.2104L7.93542 11.9601L7.53551 12.0196C7.34981 12.0483 7.1596 12.0441 6.97573 12.0073C6.79186 11.9705 6.61793 11.9018 6.46388 11.8053C6.15276 11.6102 5.94149 11.3131 5.87653 10.9795C5.81157 10.6458 5.89825 10.3029 6.11751 10.0261C6.33676 9.74927 6.67063 9.5613 7.04566 9.50351C9.50497 9.12442 11.9805 8.83364 14.4661 8.63188V8.24543C14.4661 5.58288 16.7871 3.30848 19.8544 3.22166C22.0027 3.16049 24.1526 3.16049 26.3009 3.22166C29.3682 3.30848 31.6873 5.58288 31.6873 8.24543ZM19.9463 5.77355C22.0333 5.71417 24.122 5.71417 26.209 5.77355C27.6499 5.81441 28.8171 6.89373 28.8171 8.24543V8.4378C24.9937 8.23121 21.1597 8.23121 17.3363 8.4378V8.24543C17.3363 6.89373 18.5016 5.81441 19.9463 5.77355ZM19.267 15.8943C19.2597 15.7266 19.2154 15.5619 19.1365 15.4095C19.0576 15.257 18.9458 15.1199 18.8074 15.0059C18.669 14.892 18.5067 14.8034 18.3298 14.7452C18.1529 14.687 17.9648 14.6604 17.7764 14.6669C17.5879 14.6734 17.4027 14.7128 17.2314 14.783C17.0601 14.8531 16.906 14.9526 16.7779 15.0758C16.6498 15.1989 16.5502 15.3433 16.4848 15.5007C16.4194 15.6581 16.3895 15.8254 16.3968 15.993L17.0607 31.3146C17.0755 31.653 17.2407 31.9724 17.52 32.2024C17.6584 32.3163 17.8205 32.4048 17.9973 32.463C18.1741 32.5211 18.362 32.5477 18.5504 32.5412C18.7387 32.5347 18.9238 32.4953 19.095 32.4252C19.2662 32.3551 19.4202 32.2556 19.5482 32.1326C19.6762 32.0095 19.7758 31.8652 19.8411 31.7079C19.9064 31.5506 19.9363 31.3834 19.929 31.2159L19.267 15.8943ZM29.7528 15.993C29.7668 15.8222 29.742 15.6505 29.6799 15.4883C29.6178 15.3261 29.5196 15.1767 29.3913 15.049C29.2629 14.9212 29.1069 14.8178 28.9327 14.7448C28.7584 14.6719 28.5695 14.6308 28.377 14.6242C28.1846 14.6176 27.9926 14.6455 27.8125 14.7062C27.6324 14.767 27.468 14.8594 27.3289 14.9779C27.1898 15.0964 27.0789 15.2387 27.0029 15.3961C26.9269 15.5535 26.8873 15.723 26.8864 15.8943L26.2224 31.2159C26.2077 31.5545 26.3448 31.8845 26.6035 32.1332C26.8622 32.3819 27.2214 32.529 27.602 32.5421C27.9826 32.5551 28.3535 32.4332 28.6331 32.203C28.9126 31.9728 29.0779 31.6533 29.0926 31.3146L29.7528 15.993Z" fill="#706D54"/>
</svg>
