<svg width="28" height="25" viewBox="0 0 28 25" fill="none" xmlns="http://www.w3.org/2000/svg">
<path fill-rule="evenodd" clip-rule="evenodd" d="M0.447082 0.423794C0.733719 0.174443 1.12227 0.0343854 1.52738 0.0343854C1.9325 0.0343854 2.32105 0.174443 2.60769 0.423794L13.7572 10.135L24.9068 0.423794C25.0467 0.292973 25.2155 0.188045 25.403 0.115269C25.5905 0.0424934 25.793 0.00336167 25.9982 0.000207225C26.2035 -0.00294722 26.4074 0.0299403 26.5977 0.0969089C26.7881 0.163877 26.961 0.263555 27.1062 0.389994C27.2513 0.516433 27.3658 0.667044 27.4427 0.832842C27.5195 0.99864 27.5573 1.17623 27.5537 1.35501C27.5501 1.5338 27.5051 1.71011 27.4216 1.87345C27.338 2.03678 27.2176 2.18378 27.0674 2.30568L15.9178 12.0169L27.0674 21.7282C27.2176 21.8501 27.338 21.9971 27.4216 22.1604C27.5051 22.3237 27.5501 22.5001 27.5537 22.6788C27.5573 22.8576 27.5195 23.0352 27.4427 23.201C27.3658 23.3668 27.2513 23.5174 27.1062 23.6439C26.961 23.7703 26.7881 23.87 26.5977 23.9369C26.4074 24.0039 26.2035 24.0368 25.9982 24.0336C25.793 24.0305 25.5905 23.9914 25.403 23.9186C25.2155 23.8458 25.0467 23.7409 24.9068 23.6101L13.7572 13.8988L2.60769 23.6101C2.31789 23.8453 1.93459 23.9733 1.53855 23.9672C1.1425 23.9611 0.764632 23.8214 0.484542 23.5774C0.204452 23.3335 0.0440138 23.0043 0.0370261 22.6594C0.0300383 22.3144 0.177047 21.9806 0.447082 21.7282L11.5966 12.0169L0.447082 2.30568C0.160801 2.05602 0 1.71759 0 1.36474C0 1.01188 0.160801 0.673455 0.447082 0.423794Z" fill="#A08963"/>
</svg>
